<?xml version="1.0" encoding="utf-8"?>
<!-- Generator: Adobe Illustrator 14.0.0, SVG Export Plug-In . SVG Version: 6.00 Build 43363)  -->
<!DOCTYPE svg PUBLIC "-//W3C//DTD SVG 1.1//EN" "http://www.w3.org/Graphics/SVG/1.1/DTD/svg11.dtd">
<svg version="1.1" id="Layer_1" xmlns="http://www.w3.org/2000/svg" xmlns:xlink="http://www.w3.org/1999/xlink" x="0px" y="0px"
	 width="250px" height="250px" viewBox="0 0 250 250" enable-background="new 0 0 250 250" xml:space="preserve">
<g>
	<path fill="#00295F" d="M88.892,120.362l-5.583-3.271l42.519-2.812l-7.299-4.909l92.92-5.922c0.319-3.067,0.485-6.179,0.485-9.331
		C211.934,44.902,172.035,5,122.816,5S33.696,44.902,33.696,94.117c0,11.551,2.199,22.589,6.199,32.719L88.892,120.362z"/>
	<path fill="none" stroke="#DB5733" stroke-width="2.5" d="M190.095,152.562c13.604-15.646,21.839-36.084,21.839-58.444
		C211.934,44.902,172.035,5,122.816,5S33.696,44.902,33.696,94.117c0,46.139,35.07,84.093,80.009,88.656"/>
	<path fill="#DB5733" d="M209.723,111.285c0.197-1.03,0.375-2.065,0.534-3.104l-39.353,7.725
		C170.904,115.905,204.604,110.012,209.723,111.285z"/>
	<radialGradient id="SVGID_1_" cx="121.5791" cy="91.1406" r="80.9255" gradientUnits="userSpaceOnUse">
		<stop  offset="0" style="stop-color:#DB5733"/>
		<stop  offset="0.4804" style="stop-color:#DC5932"/>
		<stop  offset="0.6535" style="stop-color:#DF6030"/>
		<stop  offset="0.7768" style="stop-color:#E46B2B"/>
		<stop  offset="0.8765" style="stop-color:#EB7C25"/>
		<stop  offset="0.961" style="stop-color:#F4921D"/>
		<stop  offset="1" style="stop-color:#F99F18"/>
	</radialGradient>
	<path fill="url(#SVGID_1_)" d="M43.138,125.599l45.675-6.035l-5.58-3.271l42.522-2.816l-7.303-4.905l90.019-5.74
		c1.054-10.746,0.091-21.871-3.184-32.857C191.751,24.576,143.972-1.258,98.575,12.282c-45.403,13.537-71.233,61.317-57.7,106.72
		C41.546,121.251,42.304,123.449,43.138,125.599z"/>
	<path d="M139.813,53.177l-5.901,0.462c-14.664-13.201-41.087-16.616-42.858-30.17c-3.408,1.6-7.159,3.703-11.187,6.45
		c2.326,2.583,48.112,63.002,50.712,66.849l-2.911,2.339c0,0-46.849-62.17-50.229-67.476c-3.699,2.699-6.871,5.402-9.574,8.005
		c0.051,0.024,0.096,0.038,0.14,0.062c8.29,3.826,0.596,23.916,0.596,23.916s-9.142,7.413-5.573,1.158
		c3.576-6.251,9.697-19.336,3.244-23.111c-0.096-0.055-0.192-0.103-0.281-0.154c-33.692,40.477-27.673,72.665-27.673,72.665
		c-3.778-25.2,6.888-53,24.542-73.898c-4.597-1.052-9.098,1.76-9.098,1.76c2-2.052,6.316-4.35,10.772-3.49
		c3.121-3.117,6.868-6.313,11.352-9.413c-1.38-2.298-2.076-3.785-2.764-5.549c0,0,1.658,0.99,4.758,4.209
		c4.785-3.117,9.262-5.357,13.325-6.963c0.884-6.025,5.295-8.725,8.454-9.656c0,0-5.402,2.662-6.005,8.745
		c22.782-7.943,58.687-10.019,83.294,5.412c0,0-26.317-18.839-83.301-3.004C94.499,34.259,118.216,34.859,139.813,53.177z"/>
	<path fill="#00295F" stroke="#00295F" d="M139.813,53.177l-5.901,0.462c-14.664-13.201-41.087-16.616-42.858-30.17
		c-3.408,1.6-7.159,3.703-11.187,6.45c2.326,2.583,48.112,63.002,50.712,66.849l-2.911,2.339c0,0-46.849-62.17-50.229-67.476
		c-3.699,2.699-6.871,5.402-9.574,8.005c0.051,0.024,0.096,0.038,0.14,0.062c8.29,3.826,0.596,23.916,0.596,23.916
		s-9.142,7.413-5.573,1.158c3.576-6.251,9.697-19.336,3.244-23.111c-0.096-0.055-0.192-0.103-0.281-0.154
		c-33.692,40.477-27.673,72.665-27.673,72.665c-3.778-25.2,6.888-53,24.542-73.898c-4.597-1.052-9.098,1.76-9.098,1.76
		c2-2.052,6.316-4.35,10.772-3.49c3.121-3.117,6.868-6.313,11.352-9.413c-1.38-2.298-2.076-3.785-2.764-5.549
		c0,0,1.658,0.99,4.758,4.209c4.785-3.117,9.262-5.357,13.325-6.963c0.884-6.025,5.295-8.725,8.454-9.656
		c0,0-5.402,2.662-6.005,8.745c22.782-7.943,58.687-10.019,83.294,5.412c0,0-26.317-18.839-83.301-3.004
		C94.499,34.259,118.216,34.859,139.813,53.177z"/>
	<path fill="#00295F" d="M140.529,22.452c0,0-41.988,3.278-43.882,3.11c-2.802-0.243,24.782,2.404,29.509,3.61
		C126.156,29.173,138.135,23.048,140.529,22.452"/>
	<path fill="#F99F18" d="M131.435,24.562c0,0-5.09,0.781-16.407,1.298l11.129,1.302L131.435,24.562"/>
	<path fill="#FFFFFF" d="M140.491,47.892c-1.343-1.822-2.949-3.977-2.843-5.549c0.014-0.182,0.03-0.374,0.055-0.576
		c0.01-0.055,0.014-0.109,0.027-0.175c0.021-0.147,0.045-0.298,0.068-0.456c0.011-0.055,0.018-0.113,0.031-0.171
		c0.034-0.206,0.078-0.418,0.123-0.634c0.007-0.031,0.017-0.062,0.021-0.089c0.041-0.185,0.093-0.38,0.137-0.579
		c0.021-0.062,0.038-0.134,0.059-0.202c0.044-0.171,0.089-0.346,0.137-0.514c0.021-0.062,0.038-0.127,0.055-0.188
		c0.065-0.226,0.138-0.456,0.209-0.688c0.014-0.048,0.027-0.1,0.048-0.151c0.059-0.185,0.12-0.377,0.186-0.565
		c0.027-0.072,0.051-0.151,0.075-0.226c0.068-0.188,0.13-0.37,0.198-0.555c0.018-0.058,0.041-0.116,0.063-0.171
		c0.085-0.236,0.171-0.476,0.264-0.716c0.021-0.058,0.041-0.109,0.062-0.167c0.075-0.188,0.147-0.38,0.223-0.569
		c0.027-0.072,0.055-0.141,0.085-0.212c0.083-0.206,0.165-0.408,0.25-0.61c0.011-0.038,0.024-0.072,0.042-0.106
		c0.099-0.243,0.198-0.483,0.298-0.723c0.027-0.048,0.044-0.1,0.068-0.151c0.082-0.192,0.164-0.387,0.253-0.579
		c0.018-0.052,0.042-0.103,0.065-0.158c0.209-0.473,0.418-0.938,0.627-1.384c0.014-0.024,0.021-0.048,0.034-0.076
		c0.093-0.205,0.191-0.411,0.284-0.613c0.007-0.007,0.014-0.024,0.021-0.034c-0.438,0.027-0.9,0.062-1.384,0.106
		c-2.264,3.539-5.213,8.745-5.446,12.188c-0.134,1.983,2.624,3.093,3.96,5.1c0.411,0.613,1.322,1.206,2.229,1.744l0.397-0.175
		C141.19,48.848,140.848,48.382,140.491,47.892"/>
	<path fill="#00295F" d="M184.641,92.781c0,0,3.117-4.569,1.144-9.684c-0.267-0.692-0.562-1.333-0.884-1.938
		c-4.788-9.022-15.235-9.016-16.688-8.964c-0.117,0.003-0.179,0.01-0.179,0.01c-0.157-0.243-0.322-0.479-0.493-0.699
		c-0.486-0.671-1-1.284-1.527-1.863c-4.248-4.617-9.399-6.443-9.399-6.443l0.404,0.044c0,0,16.729,4.121,19.757,1.486
		c2.131-1.856,2.049-8.577,1.651-12.554l5.68,0.394c0,0-5.591-14.277-7.804-20.059c-3.041-7.937-16.51-12.28-31.465-10.208
		c0,0-10.163,7.063-15.784,9.543c0,0,6.532-1.017,11.276-1.435c0.483-0.044,0.945-0.079,1.384-0.106
		c-0.007,0.01-0.014,0.027-0.021,0.034c-0.093,0.202-0.191,0.408-0.284,0.613c-0.014,0.028-0.021,0.052-0.034,0.076
		c-0.209,0.445-0.418,0.911-0.627,1.384c-0.023,0.055-0.048,0.106-0.065,0.158c-0.089,0.191-0.171,0.387-0.253,0.579
		c-0.024,0.051-0.041,0.103-0.068,0.151c-0.1,0.24-0.199,0.479-0.298,0.723c-0.018,0.034-0.031,0.068-0.042,0.106
		c-0.085,0.202-0.167,0.404-0.25,0.61c-0.03,0.072-0.058,0.141-0.085,0.212c-0.075,0.188-0.147,0.38-0.223,0.569
		c-0.021,0.058-0.041,0.109-0.062,0.167c-0.093,0.24-0.179,0.479-0.264,0.716c-0.021,0.055-0.045,0.113-0.063,0.171
		c-0.068,0.185-0.13,0.367-0.198,0.555c-0.024,0.075-0.048,0.154-0.075,0.226c-0.065,0.188-0.127,0.38-0.186,0.565
		c-0.021,0.051-0.034,0.103-0.048,0.151c-0.071,0.233-0.144,0.462-0.209,0.688c-0.017,0.062-0.034,0.126-0.055,0.188
		c-0.048,0.167-0.093,0.342-0.137,0.514c-0.021,0.068-0.038,0.141-0.059,0.202c-0.044,0.199-0.096,0.394-0.137,0.579
		c-0.004,0.028-0.014,0.059-0.021,0.089c-0.045,0.216-0.089,0.428-0.123,0.634c-0.014,0.058-0.021,0.116-0.031,0.171
		c-0.023,0.158-0.048,0.309-0.068,0.456c-0.014,0.065-0.018,0.12-0.027,0.175c-0.024,0.202-0.041,0.394-0.055,0.576
		c-0.106,1.572,1.5,3.727,2.843,5.549c0.356,0.49,0.699,0.956,0.979,1.377l-0.397,0.175l-5.778,2.572
		c-3.933,0.326-11.256-0.682-16.113,0.97c-0.384,0.13,2.278,3.436,2.278,3.436c-10.971-8.752-19.442-9.081-25.183-7.207
		c-5.782,1.891-8.793,6.015-8.793,6.015c-14.907-7.001-36.671,11.259-37.024,11.842c-0.548,0.921-0.593,1.462-0.397,2.134
		c0.274,0.979,1.035,2.237,1.401,5.364c1.079,9.098,2.891,31.013,10.451,41.539c0.842,1.178,0.503,2.367,0.277,3.5
		c5.035,0,4.299,0.952,6.306,0.545c1.527-0.312,3.733-2.778,5.737-2.518c2,0.25,2.206,1.726,3.898,1.647
		c1.014-0.051,2.356-0.764,3.593-1.237c-1.603-1.034-4.052-3.244-5.166-7.484C73.742,99.745,82.949,73.935,65.5,77.898l6.81-2.442
		c0,0,2.518,1.87,4.08,5.042c4.375,0.777,8.32,0.479,11.677-0.284l0.168-0.038c7.135-1.668,11.547-5.433,11.547-5.433
		c-3.902,4.542-8.187,6.553-12.016,7.286c-3.086,12.91-2.665,27.848-1.973,36.85c1.059,0.908,1.99,1.98,1.99,1.98l0.171,0.39
		c3.313-0.531,5.981-1.024,7.666-1.442c0,0,34.514-8.717,38.176-9.009c6.453-4.97,12.311-9.416,12.311-9.416
		c0.866,0.147,1.825,0.089,2.836-0.117c9.098-1.85,13.64-7.313,15.462-11.396c0,0,2.617,2.565,9.454,1.761
		c0,0-4.179,1.305-7.043,1.435c-0.041,0.041,5.323,1.586,5.323,1.586s-2.699,0.938-7.693,0.076
		c-1.589,1.658-3.638,6.477,1.788,13.485c6.159-0.49,12.304-0.983,18.285-1.462c0.287-0.278,0.514-0.494,0.65-0.62
		C192.971,98.834,184.641,92.781,184.641,92.781"/>
	<path fill="#00A0E4" d="M157.601,44.539l-1.603-0.524c0,0-1.028-1.161-2.302-2.25c-1.138-0.973-2.47-1.891-3.457-1.88
		c-2.089,0.027-3.188,2.983-3.068,3.966c0.068,0.511,0.428,1.401,0.9,2.381c0.915,1.87,2.251,4.052,2.754,4.515
		c0.908,0.842,1.563,0.421,1.563,0.421s0.863,0.044,0.637,1.62c-0.123,0.863-1.511,6.851,17.709,9.509
		C164.006,54.424,162.684,45.806,157.601,44.539"/>
	<path fill="#00295F" d="M148.51,41.596c0,0,1.268-1.236,1.771-1.031c0.514,0.212,3.572,3.74,3.318,4.765
		C153.6,45.33,151.288,41.795,148.51,41.596"/>
	<linearGradient id="SVGID_2_" gradientUnits="userSpaceOnUse" x1="146.001" y1="23.4775" x2="183.0196" y2="47.1681">
		<stop  offset="0.3249" style="stop-color:#F99F18"/>
		<stop  offset="0.5406" style="stop-color:#FFFFFF"/>
		<stop  offset="0.784" style="stop-color:#F99F18"/>
	</linearGradient>
	<path fill="url(#SVGID_2_)" d="M166.548,37.144l8.077,0.609l0.809,0.062l-0.418,0.462l-3.035,3.312l-13.188-0.993
		c1.425,0.141,4.72,2.377,4.72,2.377s19.072,2.131,12.907,7.354l1.795,0.137l2.986,0.237c0,0-3.994-11.078-6.206-16.856
		c-3.042-7.94-15.072-11.763-30.03-9.69l-7.714,4.703c1.979-0.322,3.826-0.596,5.566-0.822
		C177.475,23.49,166.548,37.144,166.548,37.144"/>
	<path fill="#FFFFFF" d="M140.491,47.892c-0.247,1.285-4.624,2.98-5.464,2.778c-9.347-2.175-19.784,0.716-19.784,0.716
		c-18.675-11.849-27.834,0.534-28.927,2.175c-0.079,0.113-0.12,0.175-0.12,0.175c-0.394-0.182-0.785-0.35-1.182-0.507
		c-12.307-4.875-25.292,3.744-31.479,9.646c-2.34,2.23-3.71,4.069-3.707,4.642c0.014,1.192,0.106,1.647,0.233,1.688
		c-0.195-0.671-0.15-1.212,0.397-2.134c0.353-0.583,22.118-18.843,37.024-11.842c0,0,3.011-4.124,8.793-6.015
		c5.741-1.874,14.212-1.545,25.183,7.207c0,0-2.662-3.306-2.278-3.436c4.857-1.651,12.18-0.644,16.113-0.97l6.176-2.747
		C141.19,48.848,140.848,48.382,140.491,47.892"/>
	<path fill="#FFFFFF" d="M168.213,72.195c1.452-0.051,11.899-0.058,16.688,8.964l0.117,0.274
		c-7.386-14.068-18.333-11.688-18.333-11.688l-0.671-0.103c0.527,0.579,1.041,1.192,1.527,1.863L168.213,72.195"/>
	<path fill="#FFFFFF" d="M143.522,67.834c-1.977-2.747-8.516-10.557-18.812-10.667c0,0,0.045,0.624-0.031,1.511
		c8.039,0.099,13.814,4.268,16.9,7.224C142.324,66.485,142.981,67.129,143.522,67.834"/>
	<path fill="#FFFFFF" d="M90.18,58.86c0,0,7.31-15.328,26.06-2.141c0.624,0.36,1.261,0.75,1.911,1.168
		C97.51,41.422,89.549,58.13,89.549,58.13c-14.907-7.008-34.486,8.101-34.839,8.687C55.063,66.231,75.276,51.859,90.18,58.86"/>
	<path fill="#00A0E4" d="M146.191,59.905l2.713,2.959l1.613-5.576c0,0-5.118-6.454-4.994-7.015c0.126-0.565,1.637,6.083,1.637,6.083
		L146.191,59.905"/>
	<path fill="#00A0E4" d="M124.639,58.679c0,0-0.103,1.044-0.223,1.627c0,0,11.242,0.969,17.164,5.597
		c-3.086-2.956-8.861-7.125-16.9-7.224C124.666,58.679,124.649,58.679,124.639,58.679"/>
	<path fill="#00A0E4" d="M169.027,80.159c0,0-0.109-7.878-9.844-8.854c-4.597-0.462-10.276-0.089-10.276-0.089l2.531-3.24
		c10.965,2.665,8.909,2.031,10.779,2.665c3.59,1.223,6.796,6.214,7.358,6.82c0,0,8.501-0.383,13.954,9.605
		C183.53,87.064,179.742,72.123,169.027,80.159"/>
	<path fill="#00A0E4" d="M116.24,56.719c-18.75-13.188-26.06,2.141-26.06,2.141c-14.904-7.001-35.117,7.372-35.469,7.958
		c0.353-0.586,22.248-13,37.151-5.998c0,0,6.207-15.503,26.916-2.199C117.911,57.928,117.065,57.298,116.24,56.719"/>
	<path fill="#00A0E4" d="M60.537,69.592l-1.918,1.86c-0.085,0.195,1.867,0.993,1.867,0.993l-2.552,1.179l2.545,1.445l-2.61,1.322
		c0,0,0.51,0.435,0.565,0.932c3.459,28.427,6.179,32.832,6.179,32.832s-1.986,0.421-5.316-11.167
		c-1.363-4.751-3.233-19.819-3.233-19.819C55.642,73.356,52.628,70.105,60.537,69.592"/>
	<path fill="#00A0E4" d="M91.437,88.609l-2.973,21.624L93.989,110l-3.268-2.795l2.466-1.973l-1.624-4.021l2.179-1.462
		C93.742,99.749,92.266,97.837,91.437,88.609"/>
	<path fill="#00A0E4" d="M105.262,76.918c0,0,3.456,10.855,8.173,15.082l5.545,0.997l-6.463-3.49l5.292-0.771l-7.149-3.877
		l6.615,0.699c0,0-6.173-2.429-11.811-8.324"/>
	<path fill="#FCB131" d="M178.667,107.87h0.021c-0.027-0.035-0.048-0.065-0.068-0.093L178.667,107.87"/>
	<path fill="#D95936" d="M81.531,117.211c0.284-0.12,0.562-0.24,0.843-0.353C82.093,116.971,81.815,117.091,81.531,117.211"/>
	<path fill="#FFFFFF" d="M88.234,80.176c-0.059,0.01-0.113,0.024-0.168,0.038c-3.357,0.764-7.303,1.062-11.677,0.284l-0.223,0.425
		c0,0,0.302,0.133,0.846,0.329c1.651,0.569,5.573,1.634,10.231,0.87c0.168-0.031,0.343-0.055,0.521-0.092
		c3.48-0.671,7.333-2.395,10.93-6.104c-0.065-0.072-0.137-0.147-0.202-0.223C96.695,76.929,93.098,79.035,88.234,80.176"/>
	<path fill="#DB5733" d="M138.337,94.758c0.071-0.048,0.116-0.079,0.116-0.079c3.021-2.603,6.73-8.926,7.488-10.266l-0.765,0.096
		c-10.69,17.428-16.403,11.731-31.252,10.365c-7.303-3.076-13.181-17.692-13.181-17.692s11.917-2.887,14.082-10.303
		c0,0-8.173,9.214-13.986,7.704c-2.774-0.716-6.652-3.412-9.354-5.717c-1.014-0.863-1.867-1.641-2.449-2.192
		c-0.236-0.229-2.144,1.096-2.144,1.096s7.981,3.915,11.602,7.933c0.065,0.075,0.137,0.15,0.202,0.223
		c0.812,0.942,1.37,1.887,1.514,2.785c1.538,9.567,11.009,16.685,11.009,16.685c6.381,0.75,17.801,4.336,19.353,3.679
		c2.953-1.25,6.937-3.782,7.731-4.295l-1.706,3.23c0,0,9.793,5.244,16.435-0.171C153.031,97.837,139.878,100.968,138.337,94.758"/>
	<path fill="#FFFFFF" d="M83.268,117.396c-1.658-0.558-4.422-2.141-5.59-6.611c-1.473-5.624,1.292-22.576-0.665-29.533
		c-0.544-0.195-0.846-0.329-0.846-0.329l0.223-0.425c-1.562-3.172-4.08-5.042-4.08-5.042l-6.81,2.442
		c17.449-3.963,8.242,21.847,11.061,32.664c1.113,4.241,3.563,6.45,5.166,7.484c0.829-0.312,1.606-0.517,2.209-0.346
		c0.548,0.165,1.209,0.63,1.829,1.154c0.01-0.003,0.017-0.003,0.027-0.003c-0.692-9.002-1.103-23.926,1.973-36.822
		c-0.178,0.038-0.353,0.062-0.521,0.092C81.531,100.947,81.993,111.771,83.268,117.396"/>
	<path fill="#D95936" d="M79.921,117.786c0.253-0.058,0.514-0.144,0.784-0.247C80.435,117.643,80.174,117.728,79.921,117.786"/>
	<polyline fill="#D95936" points="80.798,118.721 80.798,118.721 80.798,118.718 80.798,118.721 	"/>
	<path fill="#D95936" d="M84.847,118.102c0.161-0.069,0.318-0.134,0.476-0.199C85.165,117.968,85.007,118.033,84.847,118.102"/>
	<path fill="#DB5733" d="M62.191,119.608c0.226-1.134,0.565-2.322-0.277-3.5c-7.56-10.526-9.372-32.441-10.451-41.539
		c-0.366-3.127-1.126-4.385-1.401-5.364c-0.126-0.041-0.219-0.497-0.233-1.688c0-0.151-1.072,0.688-0.99,5.484
		c0.182,10.389,4.525,32.681,12.081,43.207c0.757,1.055,0.576,2.377,0.367,3.675c0.24-0.171,0.5-0.274,0.784-0.274
		C62.109,119.608,62.15,119.608,62.191,119.608"/>
	<path fill="#00295F" d="M235.014,109.785l-5.728,22.141c0,0,3.151,3.686,2.871,9.817c-0.288,6.131-1.617,19.688-13.037,20.717
		c-3.11,0.284-5.577-1.36-5.577-1.36s-19.757,0.274-33.637,2.049c0,0-5.802,4.356-11.311,2.723c0,0-43.279-2.227-134.92,79.129
		c0,0,1.812-89.217,1.24-97.126L7.54,131.11l81.352-10.748l-5.583-3.271l42.519-2.812l-7.299-4.909l123.932-7.899l-73.837,14.493
		c0,0,35.761-6.258,39.193-4.487c3.438,1.778,4.439,3.549,4.439,3.549s7.871-9.68,15.174-3.408L235.014,109.785z"/>
	<g>
		<path fill="#FFFFFF" d="M220.442,121.842c1-0.257,3.233,5.601,4.597,9.423l4.898-16.178l-3.679,2.528c0,0-1.576-3.689-3.652-3.631
			c-2.068,0.055-7.131,2.042-8.173,14.177c-0.562,6.587,2.453,10.112,3.151,10.879c0.692,0.768,5.474,4.8,4.844,8.985
			c-0.63,4.192-2.199,2.5-3.404,0.962c-1.433-1.825-3.11-5.384-3.967-9.207l-4.172,10.543c0,0,2.171,7.516,7.597,8.061
			c6.543,0.668,8.886-10.26,9.098-13.63c0.418-6.512-0.308-9.943-6.768-16.096C219.428,127.333,219.113,122.188,220.442,121.842z"/>
		<path fill="#FFFFFF" d="M203.247,123.87c-1.021,11.663-6.57,10.412-6.57,10.412l2.158-13.444
			C202.288,120.057,203.555,120.386,203.247,123.87z M209.83,123.362c0.754-10.039-8.557-8.429-8.604-8.422
			c-0.904,0.103-10.399,1.675-12.667,2.055l2.672,3.507l-4.836,33.376l-3.056,4.857l13.092-1.131l-2.857-3.61l2.274-14.581
			l1.542-0.302l3.856,18.147l8.632-0.267l-5.439-20.666C204.438,136.327,209.05,133.834,209.83,123.362z"/>
		<path fill="#FFFFFF" d="M177.879,135.827c-0.164,2.881-1.966,19.559-4.104,19.501c-1.507-0.041-1.315-7.991-1.083-10.276
			c0.37-3.72,2.569-20.788,4.125-20.744C178.858,124.373,177.824,136.835,177.879,135.827z M178.043,118.102
			c-8.371-0.99-12.297,20.688-13.051,27.68c-0.349,3.233-1.082,15.846,6.372,16.387c9.412,0.688,13.557-18.284,13.934-26.091
			C185.579,130.258,185.832,119.03,178.043,118.102z"/>
		<path fill="#FFFFFF" d="M144.163,136.704c-0.428,4.494-2.768,10.225-7.2,10.362l2.747-14.76c0,0,2.145-0.692,2.754-0.692
			C143.084,131.614,144.588,132.21,144.163,136.704z M119.857,145.597c-0.37,3.1-1.521,8.351-6.375,9.368l2.144-17.302
			c0,0,3.179-1.575,3.826-0.082C119.994,138.835,120.241,142.5,119.857,145.597z M92.728,171.054l-3.744,1.521l5.347-20.904
			L92.728,171.054z M167.712,120.78l-14.304,2.884l2.713,3.011l-4.374,33.332l-3.442,4.158l-3.71-14.746
			c5.351-4.438,6.953-12.711,7.063-14.044c0.119-1.421,0.496-5.426-1.669-7.994c-2.613-3.11-7.642-1.672-8.95-1.271
			c-1.309,0.395-12.108,2.953-12.108,2.953l3.336,3.892l-5.847,34.993l-1.322,3.74l-3.151-15.4
			c4.662-4.323,5.378-11.365,5.542-12.646c0.527-4.165,0.031-9.063-1.695-11.174c-1.928-2.37-5.532-1.962-8.751-0.989
			c-2.549,0.771-12.434,3.199-12.434,3.199l3.58,3.686l-5.269,42.139l-1.034,3.528l-1.822-0.507l-0.339-47.757l-6.21,2.244
			l-20.145,62.893l-5.23,9.043l15.938-11.338l-1.583-2.179l4.73-17.37l5.361-2.284l-0.192,10.272l-3.566,8.412
			c14.38-9.748,25.512-15.14,25.512-15.14l-3.425-3.504l1.997-16.123l1.857-0.819l3.076,18.744
			c9.879-5.18,19.761-8.652,19.761-8.652l-3.795-3.505l2.518-14.115l1.565-0.49l3.692,16.74c9.858-3.851,21.84-6.043,21.84-6.043
			l-3.583-3.699l4.31-33.062L167.712,120.78z"/>
		<path fill="#FFFFFF" d="M49.569,187.807l1.589-45.659l10.375-2.313L49.569,187.807z M82.658,136.102
			c-0.925,2.056-3.038,1.483-3.038,1.483l-11.705,40.371l3.843-40.498l49.849-9.738l-5.45-2.597l38.846-5.648l-7.939-3.196
			l76.31-12.431l-96.999,7.566l7.902,4.045l-43.114,3.604l5.905,3.031l-78.629,10.968l21.22,12.533
			c-0.527,38.768-1.223,89.597-1.223,89.597l9.543-9.522l11.588-44.358l-4.056,38.679l9.731-7.703
			c7.447-28.704,21.145-73.765,21.145-73.765C84.364,138.157,83.579,134.046,82.658,136.102z"/>
	</g>
	<linearGradient id="SVGID_3_" gradientUnits="userSpaceOnUse" x1="114.3267" y1="65.9907" x2="134.19" y2="182.9805">
		<stop  offset="0.4338" style="stop-color:#F99F18"/>
		<stop  offset="0.5406" style="stop-color:#FFFFFF"/>
		<stop  offset="0.7317" style="stop-color:#F99F18"/>
	</linearGradient>
	<path fill="url(#SVGID_3_)" d="M227.58,144.754c-0.212,3.37-2.555,14.298-9.098,13.63c-5.426-0.545-7.597-8.061-7.597-8.061
		l4.172-10.543c0.856,3.823,2.534,7.382,3.967,9.207c1.205,1.538,2.774,3.23,3.404-0.962c0.63-4.186-4.151-8.218-4.844-8.985
		c-0.698-0.767-3.713-4.292-3.151-10.879c1.042-12.136,6.104-14.122,8.173-14.177c2.076-0.058,3.652,3.631,3.652,3.631l3.679-2.528
		l-4.898,16.178c-1.363-3.822-3.597-9.68-4.597-9.423c-1.329,0.346-1.015,5.491,0.37,6.816
		C227.272,134.811,227.998,138.242,227.58,144.754z M204.438,136.327l5.439,20.666l-8.632,0.267l-3.856-18.147l-1.542,0.302
		l-2.274,14.581l2.857,3.61l-13.092,1.131l3.056-4.857l4.836-33.376l-2.672-3.507c2.268-0.38,11.763-1.953,12.667-2.055
		c0.048-0.007,9.358-1.617,8.604,8.422C209.05,133.834,204.438,136.327,204.438,136.327z M198.835,120.838l-2.158,13.444
		c0,0,5.55,1.251,6.57-10.412C203.555,120.386,202.288,120.057,198.835,120.838z M185.298,136.077
		c-0.377,7.807-4.521,26.779-13.934,26.091c-7.454-0.541-6.721-13.153-6.372-16.387c0.754-6.991,4.68-28.67,13.051-27.68
		C185.832,119.03,185.579,130.258,185.298,136.077z M176.817,124.308c-1.556-0.044-3.755,17.024-4.125,20.744
		c-0.232,2.285-0.424,10.235,1.083,10.276c2.138,0.058,3.939-16.62,4.104-19.501C177.824,136.835,178.858,124.373,176.817,124.308z
		 M164.15,125.791l-4.31,33.062l3.583,3.699c0,0-11.981,2.192-21.84,6.043l-3.692-16.74l-1.565,0.49l-2.518,14.115l3.795,3.505
		c0,0-9.882,3.473-19.761,8.652l-3.076-18.744l-1.857,0.819l-1.997,16.123l3.425,3.504c0,0-11.132,5.392-25.512,15.14l3.566-8.412
		l0.192-10.272l-5.361,2.284l-4.73,17.37l1.583,2.179l-15.938,11.338l5.23-9.043l20.145-62.893l6.21-2.244l0.339,47.757l1.822,0.507
		l1.034-3.528l5.269-42.139l-3.58-3.686c0,0,9.885-2.429,12.434-3.199c3.22-0.973,6.823-1.381,8.751,0.989
		c1.727,2.11,2.223,7.009,1.695,11.174c-0.164,1.281-0.88,8.323-5.542,12.646l3.151,15.4l1.322-3.74l5.847-34.993l-3.336-3.892
		c0,0,10.8-2.559,12.108-2.953c1.309-0.4,6.337-1.839,8.95,1.271c2.165,2.568,1.788,6.573,1.669,7.994
		c-0.11,1.333-1.713,9.605-7.063,14.044l3.71,14.746l3.442-4.158l4.374-33.332l-2.713-3.011l14.304-2.884L164.15,125.791z
		 M94.331,151.67l-5.347,20.904l3.744-1.521L94.331,151.67z M119.453,137.581c-0.647-1.493-3.826,0.082-3.826,0.082l-2.144,17.302
		c4.854-1.018,6.004-6.269,6.375-9.368C120.241,142.5,119.994,138.835,119.453,137.581z M142.464,131.614
		c-0.609,0-2.754,0.692-2.754,0.692l-2.747,14.76c4.433-0.138,6.772-5.868,7.2-10.362
		C144.588,132.21,143.084,131.614,142.464,131.614z M86.388,138.523c0,0-13.698,45.061-21.145,73.765l-9.731,7.703l4.056-38.679
		l-11.588,44.358l-9.543,9.522c0,0,0.695-50.829,1.223-89.597l-21.22-12.533l78.629-10.968l-5.905-3.031l43.114-3.604l-7.902-4.045
		l96.999-7.566l-76.31,12.431l7.939,3.196l-38.846,5.648l5.45,2.597l-49.849,9.738l-3.843,40.498l11.705-40.371
		c0,0,2.113,0.572,3.038-1.483C83.579,134.046,84.364,138.157,86.388,138.523z M61.534,139.835l-10.375,2.313l-1.589,45.659
		L61.534,139.835z"/>
	<path fill="none" stroke="#DB5733" stroke-width="2.5" stroke-miterlimit="14" d="M235.014,109.785l-5.728,22.141
		c0,0,3.151,3.686,2.871,9.817c-0.288,6.131-1.617,19.688-13.037,20.717c-3.11,0.284-5.577-1.36-5.577-1.36
		s-19.757,0.274-33.637,2.049c0,0-5.802,4.356-11.311,2.723c0,0-43.279-2.227-134.92,79.129c0,0,1.812-89.217,1.24-97.126
		L7.54,131.11l81.352-10.748l-5.583-3.271l42.519-2.812l-7.299-4.909l123.932-7.899l-73.837,14.493c0,0,35.761-6.258,39.193-4.487
		c3.438,1.778,4.439,3.549,4.439,3.549s7.871-9.68,15.174-3.408L235.014,109.785z"/>
	<path fill="none" stroke="#DB5733" stroke-width="0.9751" d="M220.442,121.842c1-0.257,3.233,5.601,4.597,9.423l4.898-16.178
		l-3.679,2.528c0,0-1.576-3.689-3.652-3.631c-2.068,0.055-7.131,2.042-8.173,14.177c-0.562,6.587,2.453,10.112,3.151,10.879
		c0.692,0.768,5.474,4.8,4.844,8.985c-0.63,4.192-2.199,2.5-3.404,0.962c-1.433-1.825-3.11-5.384-3.967-9.207l-4.172,10.543
		c0,0,2.171,7.516,7.597,8.061c6.543,0.668,8.886-10.26,9.098-13.63c0.418-6.512-0.308-9.943-6.768-16.096
		C219.428,127.333,219.113,122.188,220.442,121.842z"/>
	<path fill="none" stroke="#DB5733" stroke-width="0.9751" d="M203.247,123.87c-1.021,11.663-6.57,10.412-6.57,10.412l2.158-13.444
		C202.288,120.057,203.555,120.386,203.247,123.87z M209.83,123.362c0.754-10.039-8.557-8.429-8.604-8.422
		c-0.904,0.103-10.399,1.675-12.667,2.055l2.672,3.507l-4.836,33.376l-3.056,4.857l13.092-1.131l-2.857-3.61l2.274-14.581
		l1.542-0.302l3.856,18.147l8.632-0.267l-5.439-20.666C204.438,136.327,209.05,133.834,209.83,123.362z"/>
	<path fill="none" stroke="#DB5733" stroke-width="0.9751" d="M177.879,135.827c-0.164,2.881-1.966,19.559-4.104,19.501
		c-1.507-0.041-1.315-7.991-1.083-10.276c0.37-3.72,2.569-20.788,4.125-20.744C178.858,124.373,177.824,136.835,177.879,135.827z
		 M178.043,118.102c-8.371-0.99-12.297,20.688-13.051,27.68c-0.349,3.233-1.082,15.846,6.372,16.387
		c9.412,0.688,13.557-18.284,13.934-26.091C185.579,130.258,185.832,119.03,178.043,118.102z"/>
	<path fill="none" stroke="#DB5733" stroke-width="0.9751" d="M144.163,136.704c-0.428,4.494-2.768,10.225-7.2,10.362l2.747-14.76
		c0,0,2.145-0.692,2.754-0.692C143.084,131.614,144.588,132.21,144.163,136.704z M119.857,145.597
		c-0.37,3.1-1.521,8.351-6.375,9.368l2.144-17.302c0,0,3.179-1.575,3.826-0.082C119.994,138.835,120.241,142.5,119.857,145.597z
		 M92.728,171.054l-3.744,1.521l5.347-20.904L92.728,171.054z M167.712,120.78l-14.304,2.884l2.713,3.011l-4.374,33.332
		l-3.442,4.158l-3.71-14.746c5.351-4.438,6.953-12.711,7.063-14.044c0.119-1.421,0.496-5.426-1.669-7.994
		c-2.613-3.11-7.642-1.672-8.95-1.271c-1.309,0.395-12.108,2.953-12.108,2.953l3.336,3.892l-5.847,34.993l-1.322,3.74l-3.151-15.4
		c4.662-4.323,5.378-11.365,5.542-12.646c0.527-4.165,0.031-9.063-1.695-11.174c-1.928-2.37-5.532-1.962-8.751-0.989
		c-2.549,0.771-12.434,3.199-12.434,3.199l3.58,3.686l-5.269,42.139l-1.034,3.528l-1.822-0.507l-0.339-47.757l-6.21,2.244
		l-20.145,62.893l-5.23,9.043l15.938-11.338l-1.583-2.179l4.73-17.37l5.361-2.284l-0.192,10.272l-3.566,8.412
		c14.38-9.748,25.512-15.14,25.512-15.14l-3.425-3.504l1.997-16.123l1.857-0.819l3.076,18.744c9.879-5.18,19.761-8.652,19.761-8.652
		l-3.795-3.505l2.518-14.115l1.565-0.49l3.692,16.74c9.858-3.851,21.84-6.043,21.84-6.043l-3.583-3.699l4.31-33.062L167.712,120.78z
		"/>
	<path fill="none" stroke="#DB5733" stroke-width="0.9751" d="M49.569,187.807l1.589-45.659l10.375-2.313L49.569,187.807z
		 M82.658,136.102c-0.925,2.056-3.038,1.483-3.038,1.483l-11.705,40.371l3.843-40.498l49.849-9.738l-5.45-2.597l38.846-5.648
		l-7.939-3.196l76.31-12.431l-96.999,7.566l7.902,4.045l-43.114,3.604l5.905,3.031l-78.629,10.968l21.22,12.533
		c-0.527,38.768-1.223,89.597-1.223,89.597l9.543-9.522l11.588-44.358l-4.056,38.679l9.731-7.703
		c7.447-28.704,21.145-73.765,21.145-73.765C84.364,138.157,83.579,134.046,82.658,136.102z"/>
	<path fill="#FFFFFF" d="M213.529,149.46c0,0,2.474,7.402,6.687,7.831c-5.433-0.556-7.166-6.642-7.166-6.642L213.529,149.46"/>
	<path fill="#FFFFFF" d="M80.215,140.75l-11.567,39.737l-0.072,5.658l12.842-45.327C80.979,140.835,80.215,140.75,80.215,140.75"/>
	<polyline fill="#FFFFFF" points="62.644,142.956 50.563,191.695 50.556,197.398 65.367,137.756 62.644,142.956 	"/>
	<path fill="#FFFFFF" d="M42.979,225.242c0,0,0.38-43.443,0.911-82.211l-14.527-8.581l-4.785-0.089l17.356,9.951
		c-0.534,38.774-1.226,86.119-1.226,86.119L42.979,225.242"/>
	<polyline fill="#FFFFFF" points="60.057,210.037 63.657,173.955 60.773,184.998 57.783,215.227 60.057,210.037 	"/>
	<polyline fill="#FFFFFF" points="78.287,198.258 96.314,138.253 95.472,138.767 77.311,195.206 72.991,204.389 78.287,198.258 	"/>
	<polyline fill="#FFFFFF" points="106.101,179.96 111.369,137.824 106.396,135.431 110.006,138.362 104.71,179.908 103.076,184.886 
		106.101,179.96 	"/>
	<polyline fill="#FFFFFF" points="120.457,175.147 117.617,158.486 116.175,159.236 118.901,176.116 120.457,175.147 	"/>
	<path fill="#FFFFFF" d="M120.343,136.413c0,0,4.217-0.973,2.61,8.916c-0.497,3.08-1.418,8.725-7.447,9.793
		c4.624-1.014,5.618-6.278,6.077-9.364C122.94,136.633,120.343,136.413,120.343,136.413"/>
	<polyline fill="#FFFFFF" points="129.955,166.978 135.736,132.166 130.76,129.775 134.373,132.711 128.564,166.926 
		126.934,171.903 129.955,166.978 	"/>
	<polyline fill="#FFFFFF" points="144.197,165.628 140.563,151.129 139.101,151.707 142.611,166.378 144.197,165.628 	"/>
	<path fill="#FFFFFF" d="M143.69,131.189c0,0,3.606,2.627,1.527,9.166c-1.411,4.416-2.952,7.159-7.351,7.313
		c4.019-0.774,5.148-4.186,5.933-7.057C146.017,132.553,143.69,131.189,143.69,131.189"/>
	<polyline fill="#FFFFFF" points="189.456,154.074 194.184,120.835 190.313,117.697 192.834,121.41 188.065,154.061 
		186.004,157.835 189.456,154.074 	"/>
	<polyline fill="#FFFFFF" points="204.288,155.561 199.973,137.824 198.526,138.435 202.473,155.561 204.288,155.561 	"/>
	<path fill="#FFFFFF" d="M203.836,120.403c0,0,2.774,2.13,1.479,6.381c-1.356,4.45-2.891,8.177-7.501,8.44
		c4.192-0.873,5.515-6.097,6.138-8.118C205.535,121.9,203.836,120.403,203.836,120.403"/>
	<polyline fill="#FFFFFF" points="155.169,124.089 159.307,127.004 154.99,160.325 150.065,164.59 153.511,160.432 157.889,127.104 
		155.169,124.089 	"/>
	<path fill="#FFFFFF" d="M175.098,121.054c-2.213-0.264-4.303,7.532-5.803,21.312c-1.274,11.886-0.302,17.486,3.186,17.74
		c-7.453-0.545-5.687-12.821-5.337-16.051C168.822,128.6,173.008,120.804,175.098,121.054"/>
	<path fill="#FFFFFF" d="M224.196,148.039c0.63-4.196-5.515-9.639-6.275-10.869c-0.541-0.873-2.274-2.411-1.713-9.002
		c0.706-8.265,3.296-10.954,3.987-10.978c-0.691,0.024-2.22,2.062-2.925,10.331c-0.563,6.587,2.432,10.121,3.138,10.879
		C221.559,139.626,224.826,143.843,224.196,148.039"/>
	<path fill="#FFFFFF" d="M178.872,123.092c2.049,0.062,3.028,5.418,2.692,10.834c-0.445,7.573-3.59,20.236-5.734,20.186
		c2.145,0.051,3.96-15.359,4.11-19.504C180.092,130.464,180.921,123.154,178.872,123.092"/>
	<polyline fill="#FFFFFF" points="94.331,176.555 94.331,185.207 91.444,192.757 96.03,185.532 94.331,176.555 	"/>
	<path fill="#FFFFFF" d="M82.391,116.669c-0.13,0.048-0.267,0.103-0.397,0.158c-0.26,0.106-0.527,0.223-0.791,0.332
		c-0.261,0.106-0.524,0.219-0.781,0.312c-0.257,0.096-0.503,0.175-0.74,0.233c-0.12,0.031-0.233,0.055-0.346,0.075
		c0.449,0.253,0.781,0.572,1.172,0.805c0.007,0.003,0.01,0.007,0.014,0.007c0.315,0.182,0.671,0.305,1.161,0.281
		c0.757-0.034,1.712-0.476,2.651-0.87c0.151-0.065,0.302-0.123,0.452-0.185c0.459-0.178,0.897-0.335,1.309-0.404
		c-0.572-0.483-1.175-0.908-1.678-1.059C83.86,116.193,83.147,116.382,82.391,116.669"/>
	<path fill="#FFFFFF" d="M70.251,118.598c-1.846,0.376-1.168-0.497-5.792-0.493c-0.034,0-0.065,0-0.11,0
		c-0.253,0-0.493,0.089-0.709,0.247c-1.271,0.928-1.839,4.131-2.322,5.073c-0.569,1.103-2.062,0.661-2.997,1.688
		c-0.438,0.482,0.007,1.99,0.609,3.466c0.096-0.164,0.202-0.335,0.319-0.496c0.082-0.106,0.178-0.206,0.277-0.302
		c0-0.606,0.096-1.144,0.374-1.449c0.658-0.726,1.901-1.068,2.781-1.589c0.37-0.216,0.682-0.473,0.85-0.802
		c0.243-0.469,0.579-1.397,1.021-2.309c0.137-0.277,0.284-0.558,0.438-0.818c0.524-0.88,1.168-1.596,1.953-1.641
		c1.527-0.085,3.802,0.891,5.316,1.011c0.264,0.021,0.507,0.021,0.712-0.024c0.846-0.168,1.871-1.233,2.953-2.004
		c0.576-0.411,1.165-0.733,1.757-0.795c-0.565-0.394-1.076-0.932-2.168-1.072C73.676,116.057,71.652,118.317,70.251,118.598"/>
	<path fill="#00295F" d="M62.681,124.743c-0.88,0.521-2.124,0.863-2.781,1.589c-0.278,0.306-0.374,0.843-0.374,1.449
		c0,1.429,0.548,3.224,0.548,3.224c2.819,6.415,5.313,9.964,5.313,9.964c3.059,1.781,4.09,0.384,4.09,0.384s1.781,1.089,2.418,0.922
		c0.62-0.158,2.932-2.251,2.932-2.251s1.271,2.059,3.131,1.979c2.086-0.085,3.775-2.812,3.775-2.812l0.503,0.127l1.733,0.425
		l0.062,0.014c-0.027,0.01-0.048,0.023-0.072,0.034c-1.853,0.976,0.195,3.597,0.624,4.104c0.041,0.058,0.068,0.092,0.068,0.092
		c2.795-1.482,5.309,0.778,7.114-0.856c1.161-1.048,3.168-9.566,3.168-9.566l-4.042,0.866c-0.243-0.03-0.729,1.597-0.853,1.531
		c-0.223-0.13-0.178-0.343,0.353-0.678c1.268-0.799,2.093-3.635,1.219-5.587c-0.876-1.956,0.161-6.549,0.161-6.549l-0.88-3
		c0,0-0.4-0.37-0.966-0.839c-0.856-0.709-2.093-1.637-2.922-1.88c-0.26-0.079-0.562-0.072-0.891-0.017c-0.007,0-0.017,0-0.021,0.003
		c-0.411,0.068-0.85,0.226-1.309,0.404c-0.15,0.062-0.301,0.12-0.452,0.185c-0.938,0.394-1.894,0.836-2.651,0.87
		c-0.49,0.024-0.846-0.099-1.161-0.281c-0.003,0-0.007-0.003-0.014-0.007c-0.387-0.229-0.723-0.552-1.172-0.805
		c-0.322-0.195-0.709-0.353-1.233-0.418c-0.137-0.017-0.288-0.014-0.421,0c-0.593,0.062-1.182,0.384-1.757,0.795
		c-1.082,0.771-2.106,1.836-2.953,2.004c-0.206,0.044-0.449,0.044-0.712,0.024c-1.514-0.12-3.789-1.096-5.316-1.011
		c-0.785,0.045-1.429,0.761-1.953,1.641c-0.154,0.26-0.301,0.541-0.438,0.818c-0.212,0.438-0.401,0.874-0.562,1.264
		c-0.178,0.428-0.333,0.798-0.459,1.044C63.363,124.271,63.051,124.527,62.681,124.743"/>
	<path fill="#00A0E4" d="M84.709,131.912c0.829-3.131,1.826-4.12,1.723-5.71c-0.1-1.596-2.151-5.922,0.959-6.875
		c1.134-0.346,3.425,3.018,3.11,4.203c-0.315,1.182-1.415,1.888-0.97,3.326c0.438,1.436,2.716,6.539-1.843,10.876
		c0,0-2.315,0.623-3.042,0.599C83.925,138.308,84.555,132.502,84.709,131.912z"/>
	<path fill="none" d="M84.709,131.912c0.829-3.131,1.826-4.12,1.723-5.71c-0.1-1.596-2.151-5.922,0.959-6.875
		c1.134-0.346,3.425,3.018,3.11,4.203c-0.315,1.182-1.415,1.888-0.97,3.326c0.438,1.436,2.716,6.539-1.843,10.876
		c0,0-2.315,0.623-3.042,0.599C83.925,138.308,84.555,132.502,84.709,131.912z"/>
	<path fill="#00A0E4" d="M79.25,119.509c0,0,1.62,1.295,2.583,1.295c0.963-0.003,0.161,2.846-1.062,5.282
		c-1.223,2.442,0.277,7.988,0.24,8.563c-0.038,0.579-1.466,3.268-2.278,3.486c-0.812,0.213-2.408-0.055-2.604-0.599
		c-0.199-0.552-0.497-2.692-0.161-2.851C76.311,134.536,76.242,122.058,79.25,119.509z"/>
	<path fill="none" d="M79.25,119.509c0,0,1.62,1.295,2.583,1.295c0.963-0.003,0.161,2.846-1.062,5.282
		c-1.223,2.442,0.277,7.988,0.24,8.563c-0.038,0.579-1.466,3.268-2.278,3.486c-0.812,0.213-2.408-0.055-2.604-0.599
		c-0.199-0.552-0.497-2.692-0.161-2.851C76.311,134.536,76.242,122.058,79.25,119.509z"/>
	<path fill="#FFFFFF" d="M73.378,121.486c0,0-3.162-0.418-4.778-0.795c-1.613-0.377-1.445,0.065-2.336,1.432
		c-0.891,1.371-0.877,1.476-0.877,1.476l3.083,0.549l1.672,13.656c0,0,4.542,0.706,3.528-3.983
		c-1.017-4.689-0.798-11.841-0.003-12.026L73.378,121.486z"/>
	<path fill="#00A0E4" d="M73.378,121.486c0,0-3.162-0.418-4.778-0.795c-1.613-0.377-1.445,0.065-2.336,1.432
		c-0.891,1.371-0.877,1.476-0.877,1.476l3.083,0.549l1.672,13.656c0,0,4.542,0.706,3.528-3.983
		c-1.017-4.689-0.798-11.841-0.003-12.026L73.378,121.486z"/>
	<path fill="#00A0E4" d="M62.736,126.1c0,0,0.055,2.86,1.199,5.011c1.141,2.151,3.638,5.402,3.638,5.402l0.825-1.822l-2.953-8.231
		C65.445,126.459,64.908,124.462,62.736,126.1z"/>
	<path fill="none" d="M62.736,126.1c0,0,0.055,2.86,1.199,5.011c1.141,2.151,3.638,5.402,3.638,5.402l0.825-1.822l-2.953-8.231
		C65.445,126.459,64.908,124.462,62.736,126.1z"/>
	<path fill="#FFFFFF" d="M85.049,142.754c0,0,2.589-0.432,3.809-0.233c1.22,0.202,2.264-2.702,1.857-3.452l-2.453,1.709
		C88.262,140.777,84.113,140.962,85.049,142.754z"/>
	<path fill="#00A0E4" d="M85.049,142.754c0,0,2.589-0.432,3.809-0.233c1.22,0.202,2.264-2.702,1.857-3.452l-2.453,1.709
		C88.262,140.777,84.113,140.962,85.049,142.754z"/>
	<path fill="#DB5733" d="M59.526,127.781c-0.099,0.096-0.195,0.195-0.277,0.302c-0.117,0.161-0.223,0.332-0.319,0.496
		c-0.887,1.606-0.637,3.378-0.637,3.378c3.254,5.762,7.094,9.012,7.094,9.012s-2.494-3.549-5.313-9.964
		C60.074,131.005,59.526,129.21,59.526,127.781"/>
	<path fill="#FFFFFF" d="M83.959,139.791c0.003-0.014,0.007-0.034,0.01-0.048l-1.733-0.425c-1.288,2.435,1.905,4.374,2.364,4.638
		c-0.007-0.021-0.01-0.041-0.017-0.062C84.155,143.388,82.106,140.767,83.959,139.791"/>
	<path fill="#DB5733" d="M83.209,124.15c0,0,1.295,2.792,0.055,8.275c-0.521,2.285,0.329,4.861,0.329,4.861l-0.956-0.063
		C82.637,137.225,82.117,126.195,83.209,124.15"/>
	<path fill="#DB5733" d="M74.423,123.794l1.085,2.265l-1.158,6.607C74.351,132.666,73.701,126.062,74.423,123.794"/>
	<path fill="#DB5733" d="M65.976,126.343c0,0,2.014,2.744,2.319,4.638l-0.034,1.87C68.261,132.851,65.671,128.059,65.976,126.343"/>
	<path fill="#DB5733" d="M156.409,107.818c0,0,1.541,4.58,2.952,6.221l2.069,1.559c0,0-3.083-5.95-3.344-7.44
		c0,0-0.397-3.806,1.569-5.625c1.966-1.812,4.467-1.462,4.467-1.462s1.644,2.367,0.246,2.692c-1.404,0.322-4.356,2.069-3.515,4.813
		c0.836,2.737,3.98,4.819,4.994,8.036c0,0,0.192-0.507-2.295-6.597c-0.178-0.452-2.877-3.785-0.328-4.439
		c1.212-0.312,3.068-1.048,4.425-1.521c0.179-0.065,0.35-0.124,0.514-0.178c-0.671-0.093-1.273-0.476-1.746-1.305
		c-0.87-1.521-1.09-2.36-1.035-2.822l-0.945,0.582c0,0-4.302,0.027-6.275,1.85c-0.383,0.356-0.664,0.586-0.877,0.723l0.124,0.123
		L156.409,107.818"/>
	<path fill="#DB5733" d="M175.412,101.071c-1.198-0.302-3.781,2.144-6.028,2.716c-0.246,0.164-1.295,0.417-1.623,2.147
		c-0.549,2.854,2.945,7.447,7.131,10.352c0,0-5.583-6.786-5.61-9.927c-0.014-3.141,3.556-2.524,4.487-4.138
		c0.768-1.326,2.932,1.072,3,1.188c0.665,1.096,2.521,7.642,5.371,8.683c0,0-0.246-0.76-0.253-1.552l-0.576,0.178
		c-0.637-1.479-1.438-3.254-2.534-6.053C177.852,103.338,176.406,101.324,175.412,101.071"/>
	<path fill="#DB5733" d="M181.489,119.708c-1.479,0.479-3.967-1.86-5.693-0.518c-1.719,1.346-4.254,3.878-6.158,3.182
		c-1.897-0.695-1.836-3.99-4.885-3.264c-4.528,1.076-3.179,1.768-5.282-1.695c0,0-0.5,0.202-1.212,0.13
		c1.493,2.795,0.507,3.987,6.686,2.514c3.042-0.723,2.426,2.555,4.323,3.248c1.843,0.675,4.22-1.199,6.926-3.316
		c1.72-1.35,4.104,1.024,5.583,0.544c1.48-0.483,2.254-2.963,3.138-6.659C184.03,117.57,182.969,119.225,181.489,119.708"/>
	<path fill="#DB5733" d="M154.162,112.58c-1.015-3.795-0.528-5.336-0.528-5.336l3.262-4.73l-4.762,4.374c0,0-0.35,1.254,0.534,5.333
		c0.979,4.487,3.22,5.045,4.453,4.991C156.08,116.683,154.922,115.423,154.162,112.58"/>
	<path fill="#DB5733" d="M184.606,99.57c-0.966-3.854-9.447-5.833-9.447-5.833l-8.947,5.504c0.199,0.038,2.049,0.322,6.187-1.891
		l3.452-1.904c0,0,5.734,0.63,8.057,4.073c0,0,0.377,2.963,0.397,4.614l1.329-0.171C186.011,102.485,184.606,99.57,184.606,99.57"/>
	<path fill="#FFFFFF" d="M166.85,102.999c-2.206-3.867-0.227-3.33-0.227-3.33s1.815,0.459,6.214-1.884l3.445-1.904
		c0,0,4.371-0.24,6.7,3.203c-2.329-3.442-7.392-4.912-7.392-4.912l-3.453,1.905c-4.391,2.343-7.46,2.045-7.46,2.045
		s-1.85,0.281,0.363,4.155c0.863,1.518,1.932,2.134,3.041,2.209c0.179-0.065,0.356-0.124,0.514-0.175
		C167.925,104.215,167.322,103.832,166.85,102.999"/>
	<path fill="#00295F" d="M175.851,95.446l-3.452,1.904c-4.138,2.213-5.987,1.929-6.187,1.891c-0.014-0.003-0.021-0.003-0.021-0.003
		s-0.732-0.198-0.809,0.511c-0.055,0.462,0.165,1.301,1.035,2.822c0.473,0.829,1.075,1.212,1.746,1.305
		c-0.164,0.055-0.335,0.113-0.514,0.178c-1.356,0.473-3.213,1.209-4.425,1.521c-2.549,0.654,0.15,3.987,0.328,4.439
		c2.487,6.09,2.295,6.597,2.295,6.597c-1.014-3.216-4.158-5.299-4.994-8.036c-0.842-2.744,2.11-4.491,3.515-4.813
		c1.397-0.325-0.246-2.692-0.246-2.692s-2.501-0.35-4.467,1.462c-1.967,1.819-1.569,5.625-1.569,5.625
		c0.261,1.49,3.344,7.44,3.344,7.44l-2.069-1.559c-1.411-1.641-2.952-6.221-2.952-6.221l1-4.792l-0.124-0.123l-0.39-0.391
		l-3.262,4.73c0,0-0.486,1.542,0.528,5.336c0.76,2.843,1.918,4.104,2.959,4.631c0.404,0.209,0.795,0.305,1.138,0.332
		c0.712,0.072,1.212-0.13,1.212-0.13c2.104,3.463,0.754,2.771,5.282,1.695c3.049-0.726,2.987,2.569,4.885,3.264
		c1.904,0.696,4.439-1.836,6.158-3.182c1.727-1.343,4.214,0.997,5.693,0.518c1.479-0.483,2.541-2.138,3.425-5.833
		c0.356-1.49,0.528-1.613,0.014-3.47l-2.952,0.432c-0.021,0.154,0.164,1.257,0.164,1.257c-2.85-1.041-4.706-7.587-5.371-8.683
		c-0.068-0.117-2.232-2.514-3-1.188c-0.932,1.613-4.501,0.997-4.487,4.138c0.027,3.141,5.61,9.927,5.61,9.927
		c-4.186-2.905-7.68-7.498-7.131-10.352c0.328-1.73,1.377-1.983,1.623-2.147c2.247-0.572,4.83-3.018,6.028-2.716
		c0.994,0.253,2.439,2.268,3.364,3.596c0.021,0.024,0.041,0.055,0.062,0.076c0.021,0.038,0.041,0.065,0.062,0.096
		c0.103,0.144,0.192,0.284,0.281,0.404l5.104-0.027c0-0.103,0.021-0.969,0.021-1.083c-0.021-1.651-0.397-4.614-0.397-4.614
		C181.585,96.077,175.851,95.446,175.851,95.446"/>
	<path fill="#00A0E4" d="M170.686,105.301l3.987-2.836c0,0-1.856,1.747-2.61,3.405c-1.309,2.894,5.035,8.245,6.659,8.872
		c1.239,0.476-2.165,1.733-2.165,1.733S171.912,112.412,170.686,105.301"/>
	<path fill="#00A0E4" d="M165.698,111.453c0,0,3.467,6.878,6.446,7.598l-1.993,1.178
		C170.151,120.229,166.432,115.012,165.698,111.453"/>
	<polyline fill="#FFFFFF" points="97.288,120.143 100.463,120.143 104.327,122.736 101.377,122.304 97.288,120.143 	"/>
	<polyline fill="#FFFFFF" points="133.182,112.813 136.36,112.813 140.224,115.406 137.268,114.974 133.182,112.813 	"/>
</g>
</svg>
