<?xml version="1.0" encoding="utf-8"?>
<!-- Generator: Adobe Illustrator 14.0.0, SVG Export Plug-In . SVG Version: 6.00 Build 43363)  -->
<!DOCTYPE svg PUBLIC "-//W3C//DTD SVG 1.1//EN" "http://www.w3.org/Graphics/SVG/1.1/DTD/svg11.dtd">
<svg version="1.1" id="Layer_1" xmlns="http://www.w3.org/2000/svg" xmlns:xlink="http://www.w3.org/1999/xlink" x="0px" y="0px"
	 width="250px" height="208px" viewBox="0 0 250 208" enable-background="new 0 0 250 208" xml:space="preserve">
<g>
	<path fill="#FFFFFF" d="M234.949,43.694c-4.288,3.197-6.735,5.366-8.353,5.623l-3.803-2.367c-3.172,1.92-4.756,5.547-4.756,5.547
		l-1.967,0.371l-8.238,8.289C228.501,57.454,230.657,53.756,234.949,43.694"/>
	<g>
		<path fill="none" stroke="#FFFFFF" stroke-width="3.5927" stroke-miterlimit="20" d="M234.945,43.694
			c-4.284,3.197-6.731,5.37-8.349,5.627l-3.808-2.371c-3.167,1.92-4.751,5.547-4.751,5.547l-1.967,0.371l-8.242,8.285
			C228.501,57.454,230.657,53.756,234.945,43.694z"/>
	</g>
	<path fill="#FFFFFF" d="M113.271,24.93l-6.739,5.935v7.396c-2.536,0.598-8.112,1.63-8.112,1.63l-2.157,2.072l-1.521-7.649
		C103.997,25.738,113.271,24.93,113.271,24.93"/>
	<g>
		<path fill="none" stroke="#FFFFFF" stroke-width="3.5927" stroke-miterlimit="20" d="M113.267,24.93l-6.731,5.935v7.4
			c-2.54,0.59-8.121,1.626-8.121,1.626l-2.152,2.072l-1.524-7.645C103.997,25.734,113.267,24.93,113.267,24.93z"/>
	</g>
	<path fill="#FFFFFF" d="M224.271,32.052c0.952,5.91,6.327,9.822,12.009,8.749c5.678-1.079,9.511-6.739,8.563-12.648
		c-0.956-5.909-6.33-9.831-12.004-8.752C227.157,20.478,223.324,26.143,224.271,32.052"/>
	<g>
		<path fill="none" stroke="#FFFFFF" stroke-width="3.5927" stroke-miterlimit="20" d="M224.271,32.048
			c0.952,5.909,6.327,9.826,12.009,8.748c5.678-1.074,9.511-6.735,8.559-12.648c-0.952-5.905-6.322-9.826-12.004-8.748
			C227.157,20.474,223.324,26.143,224.271,32.048z"/>
	</g>
	<polyline fill="#FFFFFF" points="117.904,9.325 122.356,18.148 129.588,4.995 124.875,20.811 135.611,13.979 128.674,23.969 
		145.223,21.4 126.509,29.857 129.213,41.617 123.194,32.633 115.625,44.25 117.403,32.41 109.287,33.299 116.894,26.193 
		106.747,18.65 119.176,22.053 117.904,9.325 	"/>
	<g>
		<polygon fill="none" stroke="#FFFFFF" stroke-width="3.5927" stroke-miterlimit="20" points="117.904,9.329 122.356,18.153 
			129.592,4.995 124.875,20.811 135.606,13.975 128.674,23.965 145.223,21.4 126.509,29.857 129.213,41.613 123.199,32.629 
			115.625,44.246 117.399,32.406 109.287,33.299 116.894,26.197 106.747,18.65 119.176,22.049 		"/>
	</g>
	<path fill="#FFFFFF" d="M61.835,119.706c-12.842-35.691,3.66-79.209,36.859-97.198c-5.198,0.682-8.243,1.87-14.801,4.928
		C44.116,45.998,24.585,92.636,39.938,130.628c15.348,37.995,59.918,53.39,99.544,34.39c3.977-1.903,7.742-4.085,11.297-6.503
		C117.77,168.228,73.317,151.628,61.835,119.706"/>
	<g>
		<path fill="none" stroke="#FFFFFF" stroke-width="3.5927" stroke-miterlimit="20" d="M61.835,119.706
			c-12.842-35.691,3.66-79.209,36.854-97.203c-5.193,0.687-8.243,1.87-14.792,4.932C44.116,45.998,24.585,92.632,39.938,130.623
			c15.348,37.996,59.918,53.395,99.544,34.395c3.977-1.903,7.742-4.085,11.301-6.498C117.77,168.228,73.317,151.624,61.835,119.706z
			"/>
	</g>
	<path fill="#FFFFFF" d="M156.274,73.413c12.59-0.683,25.175-0.152,34.327,3.045c0,0,11.941-12.206,24.909-25.558
		c0,0-19.627,0.425-45.872,3.673l-1.524,0.21c0,0-5.181,0.598-13.558,1.744l0.013-1.461l0.172-4.961l1.054-1.475
		c4.072-5.635,7.375-9.224,14.417-15.045c0,0,4.456,3.66,6.655,6.053c0,0-1.904-6.958-4.364-12.581c0,0-17.602,4.443-33.113,23.069
		c-2.797,3.091-7.309,10.269-7.309,10.269c-8.967,1.862-18.958,4.33-29.698,7.615l-1.264,0.408
		c-5.442,1.685-10.77,3.42-15.892,5.455c0,0,7.737-10.227,12.926-14.421l-4.78-24.08c0,0-30.785,24.977-28.898,59.026
		c0,0,23.692-10.412,38.918-13.243c0,0,9.877-2.805,13.765-3.454l-3.332,16.422l0.927,16.856l14.257-0.438l18.335-36.079
		L156.274,73.413"/>
	<g>
		<path fill="none" stroke="#FFFFFF" stroke-width="3.5927" stroke-miterlimit="20" d="M156.271,73.409
			c12.594-0.678,25.175-0.147,34.331,3.049c0,0,11.937-12.206,24.909-25.558c0,0-19.627,0.421-45.872,3.668l-1.52,0.215
			c0,0-5.186,0.603-13.559,1.744l0.009-1.461l0.172-4.961l1.049-1.475c4.077-5.64,7.38-9.224,14.422-15.045
			c0,0,4.456,3.656,6.65,6.048c0,0-1.899-6.95-4.359-12.577c0,0-17.602,4.443-33.113,23.073c-2.797,3.087-7.304,10.269-7.304,10.269
			c-8.967,1.853-18.962,4.325-29.703,7.611l-1.264,0.408c-5.446,1.685-10.77,3.424-15.896,5.459c0,0,7.737-10.231,12.926-14.43
			l-4.776-24.075c0,0-30.785,24.981-28.898,59.021c0,0,23.692-10.412,38.918-13.238c0,0,9.877-2.805,13.765-3.454l-3.332,16.422
			l0.927,16.852l14.257-0.434l18.33-36.083L156.271,73.409z"/>
	</g>
	<path fill="#FFFFFF" d="M109.956,118.606c-24.294,4.006-68.709,15.303-104.969,46.673c0,0,28.89-53.433,100.951-69.396
		c0,0,13.074-4.789,38.838-5.219c9.431-0.274,19.412,0.076,29.968,1.171c0,0-41.58,41.635-53.668,60.196
		c0,0,0.826-16.817,9.78-36.403c0,0-1.743,0.531-1.815,0.539c-6.772,0.455-10.546,0.918-17.774,2.194L109.956,118.606"/>
	<g>
		<path fill="none" stroke="#FFFFFF" stroke-width="3.5927" stroke-miterlimit="20" d="M109.956,118.603
			c-24.294,4.006-68.713,15.307-104.969,46.677c0,0,28.89-53.429,100.947-69.396c0,0,13.078-4.789,38.842-5.223
			c9.431-0.27,19.412,0.08,29.968,1.175c0,0-41.58,41.631-53.668,60.196c0,0,0.821-16.817,9.78-36.403c0,0-1.743,0.531-1.815,0.535
			c-6.772,0.459-10.546,0.922-17.774,2.194L109.956,118.603"/>
	</g>
	<path fill="none" stroke="#FFFFFF" stroke-width="2.5188" stroke-miterlimit="20" d="M168.063,54.784
		c0,0-25.048,32.748-38.749,61.14 M111.216,118.358l-8.883-50.349"/>
	<path fill="#BA9752" d="M226.597,49.316l-3.803-2.367c-3.172,1.92-4.756,5.547-4.756,5.547l-1.908,0.358l-8.044,8.251
		c20.428-3.681,22.588-7.392,26.863-17.412C230.661,46.891,228.214,49.06,226.597,49.316"/>
	<path fill="#BA9752" d="M61.835,119.706c-12.842-35.691,3.66-79.209,36.859-97.198c-3.972,0.948-8.243,1.87-14.801,4.928
		C44.116,45.998,24.585,92.636,39.938,130.628c15.348,37.995,59.918,53.39,99.544,34.39c3.977-1.903,7.742-4.085,11.297-6.503
		C117.77,168.228,73.317,151.628,61.835,119.706"/>
	<g>
		<defs>
			<path id="SVGID_1_" d="M61.835,119.706c-12.842-35.691,3.66-79.209,36.859-97.198c-5.198,0.682-8.243,1.87-14.801,4.928
				C44.116,45.998,24.585,92.636,39.938,130.628c15.348,37.995,59.918,53.39,99.544,34.39c3.977-1.903,7.742-4.085,11.297-6.503
				C117.77,168.228,73.317,151.628,61.835,119.706"/>
		</defs>
		<clipPath id="SVGID_2_">
			<use xlink:href="#SVGID_1_"  overflow="visible"/>
		</clipPath>
		<line clip-path="url(#SVGID_2_)" fill="#0A1B23" x1="29.719" y1="128.092" x2="29.719" y2="128.092"/>
		<path clip-path="url(#SVGID_2_)" fill="#0A1B23" d="M36.332,83.833c0.207,0.547,0.476,1.061,0.821,1.521
			c1.019,1.352,3.012,2.544,6.832,1.457c-1.099,8.23-0.998,15.534,0.156,20.875c0.232,1.482,0.518,3.142,0.868,4.932
			c-10.054,6.723-16.797,13.062-16.902,13.158l1.613,2.316c0.101-0.097,6.427-6.039,15.917-12.463
			c1.883,8.483,5.189,19.249,10.955,29.458c-1.853,1.382-2.616,3.311-2.915,4.878c-0.88,4.612,1.487,10.349,3.572,12.434
			l1.659-2.271c-1.343-1.344-3.407-5.98-2.738-9.515c0.253-1.331,0.88-2.338,1.87-3.058c8.117,13.288,20.622,25.229,39.878,29.374
			l0.463-2.932c-18.166-3.909-30.094-15.087-37.907-27.631c5.56-2.413,17.88-1.288,28.532,3.525l-7.872-5.884
			c-8.664-2.325-17.37-2.586-22.155-0.143c-5.922-10.332-9.216-21.305-11.035-29.758c5.227-3.391,11.258-6.794,17.661-9.438
			l-0.851-2.814c-6.288,2.603-12.223,5.914-17.416,9.237c-0.27-1.419-0.497-2.746-0.683-3.955l-0.008-0.055l-0.008-0.055
			c-1.18-5.345-1.217-12.8,0.025-21.19c8.053-2.747,16.671-11.153,23.136-22.597l-2.135-1.638
			c-5.792,10.256-13.327,17.917-20.449,20.891c3.054-16.633,10.972-36.193,24.893-50.316l-1.681-2.249
			C55.648,44.924,47.43,65.941,44.486,83.551c-2.628,0.994-4.103,0.88-5.413-0.168c-1.31-1.049-1.474-2.704-1.436-4.014
			L36.332,83.833"/>
		<path clip-path="url(#SVGID_2_)" fill="none" stroke="#0A1B23" stroke-width="0.358" d="M36.328,83.833
			c0.211,0.547,0.48,1.061,0.826,1.516c1.019,1.352,3.012,2.548,6.832,1.466c-1.099,8.226-0.998,15.529,0.16,20.87
			c0.228,1.486,0.514,3.142,0.863,4.937c-10.058,6.722-16.797,13.057-16.902,13.153l1.613,2.316
			c0.101-0.097,6.423-6.039,15.917-12.463c1.883,8.483,5.193,19.244,10.951,29.458c-1.849,1.382-2.611,3.311-2.915,4.878
			c-0.872,4.612,1.491,10.349,3.576,12.429l1.659-2.262c-1.343-1.352-3.407-5.989-2.738-9.519c0.257-1.331,0.88-2.342,1.87-3.058
			c8.112,13.288,20.622,25.229,39.878,29.382l0.463-2.939c-18.166-3.909-30.094-15.087-37.907-27.631
			c5.56-2.413,17.884-1.297,28.532,3.521l-7.872-5.88c-8.664-2.325-17.37-2.586-22.159-0.147
			c-5.917-10.323-9.215-21.295-11.031-29.757c5.231-3.387,11.258-6.79,17.665-9.439l-0.855-2.813
			c-6.288,2.607-12.227,5.917-17.42,9.237c-0.265-1.42-0.493-2.742-0.678-3.951l-0.008-0.055l-0.013-0.051
			c-1.175-5.349-1.209-12.804,0.029-21.198c8.053-2.742,16.675-11.153,23.132-22.588l-2.131-1.647
			c-5.796,10.26-13.327,17.917-20.445,20.896c3.049-16.637,10.968-36.193,24.884-50.316l-1.677-2.249
			C55.648,44.924,47.43,65.941,44.482,83.547c-2.624,0.998-4.098,0.88-5.408-0.168c-1.31-1.041-1.478-2.696-1.436-4.01
			L36.328,83.833z"/>
	</g>
	<path fill="#BA9752" d="M94.869,34.204C94.949,34.646,95,34.941,95,34.933l1.373,6.92l2.047-1.962c0,0,5.577-1.032,8.112-1.63
		v-7.396l6.739-5.935C113.271,24.93,104.085,25.73,94.869,34.204"/>
	<path fill="#005183" d="M169.639,54.573c-1.55,2.076-6.848,9.228-13.364,18.84c12.59-0.683,25.175-0.152,34.327,3.045
		c0,0,11.941-12.206,24.909-25.558C215.511,50.9,195.884,51.326,169.639,54.573"/>
	<path fill="#005183" d="M139.499,50.125c15.508-18.625,33.113-23.069,33.113-23.069c2.46,5.623,4.364,12.581,4.364,12.581
		c-2.194-2.393-6.65-6.053-6.65-6.053c-7.047,5.821-10.35,9.41-14.418,15.045L139.499,50.125"/>
	<polyline fill="#BA9752" points="153.692,39.406 152.724,42.152 149.775,42.211 152.126,43.972 151.271,46.751 153.692,45.092 
		156.106,46.751 155.251,43.972 157.598,42.211 154.657,42.152 153.692,39.406 	"/>
	<polygon fill="none" stroke="#005183" stroke-width="0.358" points="153.688,39.406 152.724,42.152 149.78,42.211 152.126,43.972 
		151.275,46.756 153.688,45.092 156.103,46.751 155.251,43.972 157.598,42.211 154.653,42.152 	"/>
	<path fill="#0A1B23" d="M149.557,58.136l-5.985,0.935c0,0-0.248,1.188-0.315,1.849C144.84,59.729,149.557,58.136,149.557,58.136"/>
	<path fill="#BA9752" d="M224.271,32.052c0.952,5.91,6.327,9.822,12.009,8.749c5.678-1.079,9.511-6.739,8.563-12.648
		c-0.956-5.909-6.33-9.831-12.004-8.752C227.157,20.478,223.324,26.143,224.271,32.052"/>
	<g>
		<defs>
			<path id="SVGID_3_" d="M224.271,32.052c0.952,5.91,6.327,9.822,12.009,8.749c5.678-1.079,9.511-6.739,8.563-12.648
				c-0.956-5.909-6.33-9.831-12.004-8.752C227.157,20.478,223.324,26.143,224.271,32.052"/>
		</defs>
		<clipPath id="SVGID_4_">
			<use xlink:href="#SVGID_3_"  overflow="visible"/>
		</clipPath>
		<path clip-path="url(#SVGID_4_)" fill="#0A1B23" d="M245.032,28.699c-0.151-0.029-1.933-0.354-5.143-0.354
			c-0.042-3.34,2.351-5.935,2.376-5.956l-0.986-0.88c-0.109,0.113-2.674,2.847-2.628,6.849c-0.552,0.012-1.137,0.038-1.756,0.076
			c-0.426-3.104-1.475-6.423-3.589-9.586l-1.167,0.526l0.189,0.362c1.938,2.89,2.911,5.93,3.323,8.778
			c-0.931,0.071-1.929,0.168-2.99,0.303c-1.087-4.38-5.294-6.731-5.484-6.832l-0.745,1.133l0.219,0.172
			c0.047,0.021,3.715,2.094,4.751,5.695c-2.257,0.32-4.764,0.783-7.632,1.453l0.253,1.415c2.864-0.666,5.37-1.129,7.615-1.44
			c0.177,2.552-1.196,5.412-3.833,8.264l0.981,0.935c2.952-3.188,4.321-6.339,4.099-9.363c1.044-0.126,2.021-0.219,2.939-0.287
			c0.514,6.053-1.406,11.12-1.437,11.191l1.222,0.379c0.029-0.076,1.976-5.214,1.444-11.646c0.619-0.038,1.192-0.059,1.74-0.072
			c0.417,2.417,1.79,4.717,4.115,6.861l0.766-1.133c-1.992-1.836-3.196-3.761-3.613-5.736c3.243,0.017,4.999,0.354,5.037,0.358
			L245.032,28.699"/>
		<path clip-path="url(#SVGID_4_)" fill="none" stroke="#0A1B23" stroke-width="0.358" d="M245.032,28.699
			c-0.151-0.029-1.933-0.35-5.143-0.354c-0.042-3.336,2.351-5.935,2.376-5.96l-0.986-0.876c-0.109,0.113-2.679,2.847-2.628,6.849
			c-0.552,0.012-1.133,0.038-1.752,0.076c-0.434-3.104-1.475-6.428-3.597-9.586l-1.163,0.522l0.189,0.366
			c1.938,2.894,2.911,5.93,3.328,8.778c-0.936,0.071-1.934,0.172-2.995,0.299c-1.087-4.376-5.29-6.727-5.484-6.832l-0.745,1.137
			l0.219,0.172c0.042,0.021,3.715,2.089,4.747,5.69c-2.249,0.324-4.76,0.788-7.628,1.453l0.249,1.419
			c2.868-0.669,5.37-1.129,7.619-1.44c0.177,2.552-1.192,5.408-3.833,8.26l0.981,0.935c2.948-3.185,4.325-6.331,4.103-9.359
			c1.04-0.126,2.021-0.219,2.936-0.287c0.514,6.048-1.406,11.12-1.437,11.187l1.222,0.383c0.029-0.08,1.976-5.219,1.449-11.65
			c0.61-0.034,1.188-0.05,1.735-0.067c0.412,2.414,1.79,4.722,4.11,6.865l0.767-1.133c-1.992-1.84-3.192-3.766-3.609-5.741
			c3.243,0.021,4.999,0.354,5.037,0.358L245.032,28.699z"/>
	</g>
	<g>
		<polyline fill="#BA9752" points="117.904,9.325 122.356,18.148 129.588,4.995 124.875,20.811 135.611,13.979 128.674,23.969 
			145.223,21.4 126.509,29.857 129.213,41.617 123.194,32.633 115.625,44.25 117.403,32.41 109.287,33.299 116.894,26.193 
			106.747,18.65 119.176,22.053 117.904,9.325 		"/>
		<path fill="#005183" d="M152.312,189.894c0-0.989,0-3.622-0.186-4.46c-0.147-0.586-0.703-1.218-1.373-1.479v-0.089h7.859
			c4.006,0,7.75-0.147,11.086,1.681c3.34,1.828,5.004,4.811,5.004,7.936c0,2.813-1.517,5.703-4.372,7.472
			c-3.374,2.114-7.085,2.005-11.237,2.005l-8.34,0.046v-0.168c1.815-0.897,1.559-2.548,1.559-4.056V189.894 M159.168,199.821
			c0.666,0.177,1.34,0.231,2.001,0.231c2.338,0,3.82-0.548,5.046-2.14c0.998-1.331,1.302-2.897,1.302-4.431
			c0-2.986-1.34-6.546-5.896-6.546c-0.821,0-1.635,0.089-2.452,0.202V199.821z"/>
		<path fill="#005183" d="M143.669,202.993c0,0-1.87,0.092-3.598-2.207c-0.168-0.228-3.846-4.861-3.846-4.861v2.94
			c0,1.499-0.257,3.184,1.559,4.077l-9.97,0.051c1.812-0.986,1.555-2.629,1.555-4.128v-10.728c0-1.504,0.206-3.231-1.613-4.128
			h11.026c7.633,0.055,10.029,1.916,10.029,5.913c0,2.793-2.052,5.193-5.017,5.328l3.42,4.789c1.016,1.348,1.643,1.824,3.525,2.953
			H143.669 M136.247,192.37c0.328,0.071,0.665,0.097,0.998,0.097c1.167,0,1.908-0.228,2.523-0.893
			c0.497-0.552,0.648-1.2,0.648-1.837c0-1.238-0.67-2.716-2.948-2.716c-0.409,0-0.817,0.033-1.222,0.08V192.37z"/>
	</g>
	<path fill="#005183" d="M174.647,197.8c2.076,1.322,5.117,2.244,7.787,2.244c1.668,0,3.93-0.43,3.93-2.047
		c0-3.513-11.313-2.797-11.313-9.258c0-1.643,1.04-3.226,2.75-4.183c1.887-1.04,4.187-1.385,6.444-1.385
		c2.081,0,4.305,0.29,6.233,0.867v3.374c-1.559-0.779-3.378-1.353-5.227-1.353c-1.449,0-3.227,0.484-3.227,1.845
		c0,1.382,2.148,1.93,3.517,2.393c1.786,0.606,3.454,1.154,4.937,2.161c1.777,1.213,2.746,2.51,2.746,4.354
		c0,1.879-1.002,3.551-2.969,4.671c-2.187,1.243-4.562,1.5-7.194,1.5c-2.447,0-4.89-0.346-7.189-1.032L174.647,197.8"/>
	<path fill="#005183" d="M77.592,183.938h8.344v0.089c-1.819,0.893-1.558,2.535-1.558,4.039v10.758c0,1.499-0.261,3.116,1.558,4.01
		v0.084h-9.974v-0.084c1.815-0.894,1.559-2.511,1.559-4.01l0.071-10.758V183.938"/>
	<path fill="#005183" d="M95.72,199.842l12.64-0.021l-2.371,3.129H86.041l11.052-16.203l-2.932-0.139
		c-2.481,0-4.263,0.459-6.453,1.382l1.967-4.095h17.016L95.72,199.842"/>
	<path fill="#005183" d="M59.936,189.473L53.538,202.9l-9.081-16.772c-0.484-0.935-1.078-1.668-2.426-2.274v-0.063h8.095v0.021
		l4.553,9.502h0.109l2.611-5.724c0.186-0.417,0.556-1.167,0.556-1.588c0-0.623-0.779-1.752-1.676-2.148v-0.063h7.83v0.063
		c-0.071,0.084-0.147,0.228-0.147,0.354c0,0.791,0.447,1.508,0.855,2.257l3.584,6.849h0.114l3.129-6.225
		c0.257-0.497,0.636-1.146,0.636-1.668c0-0.632-0.564-1.154-1.268-1.567v-0.063h6.301v0.063L66.784,202.9L59.936,189.473"/>
	<path fill="#005183" d="M111.397,196.726l-1.062,2.484c-0.261,0.577-0.666,1.471-0.666,2.077c0,0.805,0.666,1.226,1.331,1.655
		l-7.599,0.051c1.411-1.104,1.887-1.938,2.557-3.412l5.118-11.507c0.223-0.573,0.817-1.697,0.817-2.304
		c0-0.779-0.669-1.302-1.411-1.673l9.085-0.088l7.008,14.855c0.885,1.845,1.07,2.548,3.185,4.077l-11.195,0.051
		c0.855-0.522,1.525-0.927,1.525-1.846c0-0.497-0.08-0.64-0.299-1.104l-1.491-3.318H111.397 M114.893,188.579l-2.072,4.756h4.204
		L114.893,188.579z"/>
	<g>
		<defs>
			<path id="SVGID_5_" d="M61.835,119.706c-12.842-35.691,3.66-79.209,36.859-97.198c-5.198,0.682-8.243,1.87-14.801,4.928
				C44.116,45.998,24.585,92.636,39.938,130.628c15.348,37.995,59.918,53.39,99.544,34.39c3.977-1.903,7.742-4.085,11.297-6.503
				C117.77,168.228,73.317,151.628,61.835,119.706"/>
		</defs>
		<clipPath id="SVGID_6_">
			<use xlink:href="#SVGID_5_"  overflow="visible"/>
		</clipPath>
		<path clip-path="url(#SVGID_6_)" fill="#005183" d="M4.987,165.279c36.26-31.37,80.675-42.667,104.969-46.673l-4.018-22.723
			C33.876,111.847,4.987,165.279,4.987,165.279"/>
		<path clip-path="url(#SVGID_6_)" fill="none" stroke="#005183" stroke-width="0.358" d="M4.987,165.279
			c36.256-31.37,80.675-42.671,104.969-46.677l-4.022-22.719C33.876,111.851,4.987,165.279,4.987,165.279z"/>
	</g>
	<path fill="#005183" d="M4.987,165.279c36.26-31.37,80.675-42.667,104.969-46.673l-4.018-22.723
		C33.876,111.847,4.987,165.279,4.987,165.279"/>
	<path fill="#005183" d="M85.228,73.872c0,0,7.737-10.227,12.926-14.421l-4.78-24.08c0,0-30.785,24.977-28.898,59.026
		c0,0,23.692-10.412,38.918-13.243l-2.274-12.737C95.678,70.103,90.35,71.838,85.228,73.872"/>
	<path fill="#005183" d="M144.89,90.665c-5.028,8.137-10.05,16.768-14.034,24.964c-8.954,19.586-9.78,36.403-9.78,36.403
		c12.088-18.562,53.668-60.196,53.668-60.196C164.188,90.741,154.32,90.391,144.89,90.665"/>
	<path fill="#BA9752" d="M141.284,52.076l13.571-1.971l-0.173,4.961l-3.34,0.762l-0.75,1.015l-5.947,0.539l-1.517,1.011
		l-3.428,0.687l0.193-1.997c-0.69-0.371-0.952-2.797-0.825-3.033c0.117-0.24-0.177-1.521,0.951-1.259
		c0.316,0.072,0.3,0.421,0.506,1.554L141.284,52.076"/>
	<path fill="#0A1B23" d="M150.045,53.802l-4.136-0.687l4.671-1.07C150.934,52.833,150.492,53.634,150.045,53.802"/>
	<path fill="none" stroke="#0A1B23" stroke-width="0.358" d="M150.045,53.802l-4.136-0.687l4.675-1.07
		C150.934,52.833,150.492,53.634,150.045,53.802z"/>
	<g>
		<defs>
			<path id="SVGID_7_" d="M111.216,118.362c7.223-1.276,10.997-1.739,17.774-2.194c0.071-0.008,0.193-0.046,0.193-0.046
				s0.097-0.122,0.131-0.194c13.701-28.396,38.749-61.144,38.749-61.144s-6.558,0.699-17.218,2.287
				c-17.656,25.031-21.742,47.22-21.742,47.22c-1.786-14.245,3.307-28.194,3.307-28.194c-7.063,7.434-16.288,28.662-16.288,28.662
				c1.019-19.952,9.447-33.498,16.073-44.364c-8.967,1.862-19.118,4.33-29.863,7.615L111.216,118.362"/>
		</defs>
		<clipPath id="SVGID_8_">
			<use xlink:href="#SVGID_7_"  overflow="visible"/>
		</clipPath>
		<path clip-path="url(#SVGID_8_)" fill="#0A1B23" d="M150.846,57.071c-17.656,25.031-21.742,47.22-21.742,47.22
			c-1.786-14.245,3.307-28.194,3.307-28.194c-7.063,7.434-16.288,28.662-16.288,28.662c1.019-19.952,9.447-33.498,16.073-44.364
			c-8.967,1.862-19.118,4.33-29.863,7.615c0,0,6.979,41.39,8.862,50.249l0.105,0.299c1.057-0.131,6.167-0.923,6.167-0.923
			l0.189-0.581c0,0,2.291-8.311,5.598-13.95c-0.51,6.234,0,13.356,0,13.356c0.042,0.198,0.042,0.492,0.042,0.492l5.917-0.631
			c13.681-28.448,38.851-61.537,38.851-61.537S161.506,55.483,150.846,57.071"/>
		<path clip-path="url(#SVGID_8_)" fill="#005183" d="M123.253,116.459c0,0-0.51-7.122,0-13.356
			c-3.307,5.639-5.598,13.95-5.598,13.95s-0.189,0.581-0.274,0.821l5.96-0.876L123.253,116.459"/>
		<path clip-path="url(#SVGID_8_)" fill="none" stroke="#005183" stroke-width="0.358" d="M123.253,116.459c0,0-0.51-7.122,0-13.356
			c-3.307,5.639-5.594,13.95-5.594,13.95s-0.198,0.581-0.282,0.821l5.964-0.876L123.253,116.459z"/>
	</g>
</g>
</svg>
